<svg version="1" xmlns="http://www.w3.org/2000/svg" width="1166.667" height="1166.667" viewBox="0 0 875.000000 875.000000"><path d="M0 187.5V250h125v125h125v123.7c0 .5-2.3.8-5 .8-2.8 0-5 .3-5 .6s-2.3.3-5-.1c-2.8-.4-5.3-.4-5.5 0-.2.4-2.5.4-5 0s-4.8-.3-5.1.2c-.3.5-1.2.4-2-.3-.8-.6-1.4-.8-1.4-.3s-3.6.7-8.1.4c-4.4-.3-8.6-.2-9.2.2-.6.3-2.1.2-3.3-.2-1.3-.5-2.5-.6-2.8-.1-.3.4-2.7.5-5.3.2-2.6-.4-6.1-.4-7.8-.1-1.6.3-4.5.3-6.3-.1-1.7-.4-3.4-.4-3.6 0-.3.4-2 .6-3.8.4-6-.6-14.9-.6-15.4 0-.3.3-1.7.2-3-.3-1.4-.6-2.6-.6-2.9.1-.4.5-1 .7-1.5.4-.5-.3-3.7-.5-7.2-.5-3.5.1-7.3.1-8.5.1l-2.3-.1v125H0v125h125V625h62.5c58.8 0 62.5-.1 62.6-1.8.1-.9 0-2.1-.1-2.7-.1-.5-.1-1.7-.1-2.5 0-1.6.1-21.8 0-23.5v-4c.1-1.7.1-3.9.1-5s-.1-6.5-.1-12v-11-4c.1-1.7.1-3.9.1-5s-.1-6.5-.1-12v-11-4c.1-1.7.1-3.9.1-5s-.1-6.4-.1-11.8v-9.9l7.1.4c3.8.1 7-.1 7-.5s.9-.3 2 .3 2 .7 2 .2c0-.5 1.8-.6 4-.2 2.5.5 4 .4 4-.3 0-.5.6-.4 1.4.2.9.8 1.6.8 2 .2.4-.6 1.6-.7 2.9-.2 1.2.5 3.1.5 4.2.1s2.9-.4 4 0 2.8.5 3.7.1c.9-.3 5.3-.4 9.8-.1 4.4.3 8 .1 8-.3s.9-.3 2 .3 2 .7 2 .2c0-.5 1.8-.6 4-.2 2.5.5 4 .4 4-.3 0-.5.6-.4 1.4.2.9.8 1.6.8 2 .2.4-.6 1.6-.7 2.9-.2 1.2.5 3.1.5 4.2.1s2.9-.4 4 0 2.8.5 3.7.1c.9-.3 5.3-.4 9.8-.1 4.4.3 8 .1 8-.3s.9-.3 2 .3 2 .7 2 .1c0-.5 1.4-.6 3.3-.1 1.8.4 4.3.3 5.5-.1l2.2-.8V625h124.8l.4 3.5c.2 1.9 0 3.5-.4 3.5-.5 0-.4.9.2 2 .6 1.1.7 2 .2 2-.5 0-.6 2-.2 4.5.4 2.5.4 4.8 0 5-.4.2-.4 2.7 0 5.5.4 2.7.3 5-.1 5s-.4 1.3.1 2.9c.4 1.5.5 3.3.1 3.9-.3.5-.4 4.7-.1 9.1.3 4.5.1 8.1-.4 8.1s-.3.6.3 1.4c.7.8.8 1.7.3 2-.5.3-.6 2.6-.2 5.1.4 2.5.4 4.8 0 5-.4.2-.4 2.7 0 5.5.4 2.7.3 5-.1 5s-.4 1.3.1 2.9c.4 1.5.5 3.3.1 3.9-.3.5-.4 4.7-.1 9.1.3 4.5.1 8.1-.4 8.1s-.3.6.3 1.4c.8.9.8 1.6.2 2-.5.4-.6 1.8-.2 3.4.4 1.5.5 3.8.2 5.1-.4 1.3-.5 4.1-.3 6.2l.4 3.9H625V625h125V499.8l3 .4c1.7.3 3 0 3-.5s.6-.4 1.4.2c.9.8 1.6.8 2 .2.4-.6 1.6-.7 2.9-.2 1.2.5 3.1.5 4.2.1s2.9-.4 4 0 2.8.5 3.7.1c.9-.3 5.3-.4 9.8-.1 4.4.3 8 .1 8-.3s.9-.3 2 .3 2 .7 2 .2c0-.5 1.8-.6 4-.2 2.5.5 4 .4 4-.3 0-.5.6-.4 1.4.2.9.8 1.6.8 2 .2.4-.6 1.6-.7 2.9-.2 1.2.5 3.1.5 4.2.1s2.9-.4 4 0 2.8.5 3.7.1c.9-.3 5.3-.4 9.8-.1 4.4.3 8 .1 8-.3s.9-.3 2 .3 2 .7 2 .2c0-.5 2-.6 4.5-.2 2.5.4 4.8.4 5 0 .2-.4 2.6-.4 5.3 0 2.7.3 5.8.3 6.8-.1 1.1-.3 2.8-.3 3.9.1 1.1.3 2.8.5 3.8.2 1.6-.3 1.7-4.1 1.7-62.8V375H750V250H625V125H500.1l.1 3.9c0 2.2-.2 4.3-.5 4.8s-.2 1.5.3 2.2c.4.8.4 2.6 0 4.1-.4 1.5-.4 3.3 0 4 .4.6.4 2.7 0 4.6-.4 1.9-.4 3.6 0 3.9.5.3.5 1.8 0 3.4-.4 1.5-.4 3.4 0 4.1.4.7.4 2.5 0 4s-.4 3.3 0 4c.4.7.4 2.5 0 4s-.4 3.3 0 4c.4.6.4 2.7 0 4.6-.4 1.9-.4 3.6 0 3.9.5.3.5 1.8 0 3.4-.4 1.5-.4 3.4 0 4.1.4.7.4 2.5 0 4s-.4 3.3 0 4c.4.7.4 2.5 0 4s-.4 3.3 0 4c.4.6.4 2.7 0 4.6-.4 1.9-.4 3.6 0 3.9.5.3.5 1.8 0 3.4-.4 1.5-.4 3.4 0 4.1.4.7.4 2.5 0 4s-.4 3.3 0 4c.4.7.4 2.5 0 4s-.4 3.3 0 4.1c.5.7.7 1.6.4 2.1-.2.4-.5 2.3-.6 4.3l-.1 3.5H375v125H250V250H125V125H0v62.5z"/></svg>